# Blender v2.93.4 OBJ File: ''
# www.blender.org
mtllib star.mtl
o Cube
v 1.991889 0.036100 -1.991889
v 1.991889 -0.036100 -1.991889
v 1.973511 0.035767 1.973511
v 1.973511 -0.035767 1.973511
v -1.973511 0.035767 -1.973511
v -1.973511 -0.035767 -1.973511
v -1.991889 0.036100 1.991889
v -1.991889 -0.036100 1.991889
v 0.000000 -0.018124 -1.000000
v 0.000000 0.018124 1.000000
v 0.000000 -0.018124 1.000000
v 0.000000 0.018124 -1.000000
v -1.000000 -0.018124 0.000000
v 1.000000 0.018124 0.000000
v -1.000000 0.018124 0.000000
v 1.000000 -0.018124 0.000000
v 0.000000 -0.018124 0.000000
v 0.000000 0.018124 0.000000
v 2.285033 0.000000 -2.285033
v -2.285033 0.000000 2.285033
v 2.263951 0.000000 2.263951
v -2.263951 0.000000 -2.263951
v 0.000000 0.000000 -1.147169
v 0.000000 0.000000 1.147169
v 1.147169 0.000000 0.000000
v -1.147169 0.000000 0.000000
vt 0.750000 0.625000
vt 0.875000 0.625000
vt 0.875000 0.750000
vt 0.750000 0.750000
vt 0.500000 0.875000
vt 0.625000 0.875000
vt 0.625000 1.000000
vt 0.500000 1.000000
vt 0.500000 0.125000
vt 0.625000 0.125000
vt 0.625000 0.250000
vt 0.500000 0.250000
vt 0.250000 0.625000
vt 0.375000 0.625000
vt 0.375000 0.750000
vt 0.250000 0.750000
vt 0.500000 0.625000
vt 0.625000 0.625000
vt 0.625000 0.750000
vt 0.500000 0.750000
vt 0.500000 0.375000
vt 0.625000 0.375000
vt 0.625000 0.500000
vt 0.500000 0.500000
vt 0.125000 0.625000
vt 0.125000 0.750000
vt 0.750000 0.500000
vt 0.125000 0.500000
vt 0.250000 0.500000
vt 0.375000 0.500000
vt 0.500000 0.000000
vt 0.625000 0.000000
vt 0.875000 0.500000
vt 0.375000 0.000000
vt 0.375000 0.125000
vt 0.375000 0.875000
vt 0.375000 0.250000
vt 0.375000 0.375000
vt 0.375000 1.000000
vn 0.0045 1.0000 -0.0045
vn 0.0959 0.9782 0.1843
vn -0.1832 0.9785 0.0944
vn -0.0045 -1.0000 -0.0045
vn 0.1832 0.9785 -0.0944
vn -0.0959 0.9782 -0.1843
vn 0.0944 0.9785 -0.1832
vn 0.0045 -1.0000 -0.0045
vn -0.0944 0.9785 0.1832
vn -0.0045 1.0000 -0.0045
vn -0.0045 1.0000 0.0045
vn 0.0045 -1.0000 0.0045
vn 0.1843 0.9782 0.0959
vn -0.0045 -1.0000 0.0045
vn -0.1843 0.9782 -0.0959
vn 0.0045 1.0000 0.0045
vn -0.1843 -0.9782 -0.0959
vn 0.1843 -0.9782 0.0959
vn -0.0944 -0.9785 0.1832
vn 0.0944 -0.9785 -0.1832
vn -0.0959 -0.9782 -0.1843
vn 0.1832 -0.9785 -0.0944
vn -0.1832 -0.9785 0.0944
vn 0.0959 -0.9782 0.1843
usemtl Material
s off
f 18/1/1 15/2/1 7/3/1 10/4/1
f 24/5/2 10/6/2 7/7/2 20/8/2
f 26/9/3 15/10/3 5/11/3 22/12/3
f 17/13/4 16/14/4 4/15/4 11/16/4
f 25/17/5 14/18/5 3/19/5 21/20/5
f 23/21/6 12/22/6 1/23/6 19/24/6
f 22/12/7 5/11/7 12/22/7 23/21/7
f 13/25/8 17/13/8 11/16/8 8/26/8
f 21/20/9 3/19/9 10/6/9 24/5/9
f 14/18/10 18/1/10 10/4/10 3/19/10
f 1/23/11 12/27/11 18/1/11 14/18/11
f 6/28/12 9/29/12 17/13/12 13/25/12
f 19/24/13 1/23/13 14/18/13 25/17/13
f 9/29/14 2/30/14 16/14/14 17/13/14
f 20/31/15 7/32/15 15/10/15 26/9/15
f 12/27/16 5/33/16 15/2/16 18/1/16
f 8/34/17 20/31/17 26/9/17 13/35/17
f 2/30/18 19/24/18 25/17/18 16/14/18
f 4/15/19 21/20/19 24/5/19 11/36/19
f 6/37/20 22/12/20 23/21/20 9/38/20
f 9/38/21 23/21/21 19/24/21 2/30/21
f 16/14/22 25/17/22 21/20/22 4/15/22
f 13/35/23 26/9/23 22/12/23 6/37/23
f 11/36/24 24/5/24 20/8/24 8/39/24
